<?xml version="1.0" encoding="UTF-8"?>
<svg id="_Слой_1" xmlns="http://www.w3.org/2000/svg" version="1.1" viewBox="0 0 645.69 475.68">
  <!-- Generator: Adobe Illustrator 30.0.0, SVG Export Plug-In . SVG Version: 2.1.1 Build 123)  -->
  <defs>
    <style>
      .st0 {
        fill: #707070;
      }

      .st1 {
        isolation: isolate;
      }
    </style>
  </defs>
  <g class="st1">
    <g class="st1">
      <g class="st1">
        <path class="st0" d="M180.21,122.59l3.45,5.81-8.9,4.45-10.35,1.36-8.9-.64-2,12.34-1.09,12.62,1.45,12.71-2.72,12.53,1.09,12.71-1.18,12.53-.73,12.62.82,12.71-1.27,12.62-7.62,11.8-7.99-11.89-.82-12.07,1.18-12.25v-12.16l-.91-12.16-2.36-12.16,1-12.25-1.45-12.07.73-12.25-2-12.07-12.98,4.81-15.16.18,1.63-13.52-3.72-13.71,11.89,3.09,11.98,1.09,12.16.73,11.98-1.72,11.98-1.54,12.16.54,11.44-4.17-2.81,9.44Z"/>
        <path class="st0" d="M218.79,121.23l14.61-5.45-2.36,12.62-.64,13.16-2.72,13.07.91,13.25-1.45,13.16.73,13.16-1,13.16-.09,13.16-.91,13.16,1.91,12.89-9.08,12.16-8.08-11.8-1.27-12.07-.91-12.16-.82-12.07,1-12.16-.09-11.62-11.62,2.81-11.8,3.27.09,13.43-1.54,13.43,1.27,13.62-.82,13.71-8.62,12.07-8.71-12.43.18-13.07.18-13.16v-13.16l-1.09-13.16,1.63-13.25-2.18-13.07-.36-13.25.09-13.16-1.91-13.07-2.54-12.62,14.43,4.99,11.98-5.26.27,12.89.45,13.07-1.36,13.07-1.09,13.43,11.62.54,11.35-1.54-.91-13.16-2.45-12.71-.45-12.89,1.72-12.8,12.44,5.81Z"/>
        <path class="st0" d="M295.94,118.96l11.16-3.63-2.63,13.89-2.27,13.8-2.36,13.8,1.45,13.8-13.71.27-13.71-4.18,3.99-12.71.45-13.43-10.35,1.45-10.08-2.63.18,11.98-1.18,11.8.09,11.8-1.18,12.07,12.25-3.09,12.8-.09,12.53-1.09-.54,12.8,1.18,13.07-12.89-3.81-13.07-.82-12.34,1.09-.54,11.35-.09,12.44,12.16-2.45,13.52-1,13.34,3.99.09,33.4-11.62-21.42-11.8-.91-11.8,1.36-11.53,2.18-11.07,20.06,1.09-30.41,1.54-12.98-1.09-12.98-.91-13.07.82-12.98-.82-13.07-.18-12.98-1.09-12.98-.18-12.98-1.09-13.16,11.26,4.45,12.71-1.27,12.53,1.45,12.44-1.82,12.53-.36Z"/>
        <path class="st0" d="M430.82,182.41l-1.91,13.16-1.72,13.25.36,13.25.45,13.34,2.45,30.41-11.25-20.06-11.53-1.18-11.62-2.9-11.71,1.09-11.53,2-12.16,18.97.91-30.04,2.09-13.25-.73-13.16-1.09-13.16-1-13.16.09-13.16-1.82-13.16-.27-13.16-1-13.07-2.81-12.44,13.34,2.36,12.71,1.18,12.71,3,12.89-1.09,12.8-.27,12.25-3-2.9,13.16-1,13.52-6.17,12.07-5.9,11.8,16.34.45-1.27,13.25ZM399.96,226.06l11.71.91-1.45-11.35-2-12.16.64-12.16-14.43,1.91-14.7-1.54,1.54,13.25-2.45,12.16-.63,12.53,10.98-.73,10.8-2.81ZM381.26,155.9l-.54,13.34,6.63.36,9.35-7.72,7.99-9.17,2-11.8-11.89.73-12.44.45-1.09,13.8Z"/>
        <path class="st0" d="M461.13,115.24l.54,13.34-.82,13.07-.45,13.16-2.54,13.07.82,13.25-1.27,13.07-.45,13.16.63,13.16.09,13.16-1.27,13.16-8.08,11.44-8.62-11.53,1.18-13.07-.36-13.16.18-13.16-2.81-13.07.73-13.25-1.91-13.07,1.09-13.25-1.45-13.07-.27-13.16-1-13.16,13.25,4.99,12.8-5.08Z"/>
        <path class="st0" d="M531.93,230.33l3.54,12.07,3.36,11.98-9.35,16.34-5.17-11.16-7.71-13.98-11.53-2.54-12.89-.36-12.8,1-12.16,20.24,1.18-30.5-.18-12.98,1.45-13.07.09-13.07-.18-12.98-.18-13.07-.91-12.98-.27-13.07-1.27-12.89-2.36-12.8,11.8,4.27,12.62,1.54,12.62-1,12.53-2.09,12.62.54,12.53-3.9-4.36,12.98-1.09,13.98-1.45,13.8-.09,14.16-14.07-.64-11.62-3.36,1.63-13.07,2.81-13.07-12.43,1.82-11.25-3.09.45,12.71-.36,12.71-.45,12.71.63,12.71-.91,12.71-1.27,12.71-.91,12.43,13.25-2.54,12.44,3.54-3.9-13.43-7.62-11.8-5.54-14.07,12.89-4.08,13.25-2.81,3.27,11.16.27,12.8,3.72,11.98,5.36,11.53Z"/>
      </g>
    </g>
  </g>
  <g class="st1">
    <g class="st1">
      <g class="st1">
        <path class="st0" d="M331.66,275.12h50.75v139.42h-57.44c.62-10.16,1.24-19.52,1.86-28.07h-65.25v-38.67c9.54-23.42,14.31-47.65,14.31-72.68h49.26c.25,9.17.06,17.13-.56,23.89-.62,6.76-1.86,13.73-3.72,20.91-1.86,7.19-4.77,13.57-8.74,19.15v7.99h16.92c1.73-28.25,2.6-52.23,2.6-71.94Z"/>
      </g>
    </g>
  </g>
</svg>